<?xml version="1.0" encoding="UTF-8" standalone="no"?>
<!-- Creator: CorelDRAW X8 -->

<svg
   xmlns:dc="http://purl.org/dc/elements/1.1/"
   xmlns:cc="http://creativecommons.org/ns#"
   xmlns:rdf="http://www.w3.org/1999/02/22-rdf-syntax-ns#"
   xmlns:svg="http://www.w3.org/2000/svg"
   xmlns="http://www.w3.org/2000/svg"
   xmlns:sodipodi="http://sodipodi.sourceforge.net/DTD/sodipodi-0.dtd"
   xmlns:inkscape="http://www.inkscape.org/namespaces/inkscape"
   xml:space="preserve"
   width="512"
   height="512"
   version="1.1"
   style="clip-rule:evenodd;fill-rule:evenodd;image-rendering:optimizeQuality;shape-rendering:geometricPrecision;text-rendering:geometricPrecision"
   viewBox="0 0 13546.533 13546.53"
   id="svg279"
   sodipodi:docname="gostcoin_testnet.svg"
   inkscape:version="0.92.2 (5c3e80d, 2017-08-06)"
   inkscape:export-filename="C:\devel\project\gostcoin\src\qt\res\src\gostcoin_testnet.png"
   inkscape:export-xdpi="96"
   inkscape:export-ydpi="96"><metadata
     id="metadata283"><rdf:RDF><cc:Work
         rdf:about=""><dc:format>image/svg+xml</dc:format><dc:type
           rdf:resource="http://purl.org/dc/dcmitype/StillImage" /><dc:title></dc:title></cc:Work></rdf:RDF></metadata><sodipodi:namedview
     pagecolor="#ffffff"
     bordercolor="#666666"
     borderopacity="1"
     objecttolerance="10"
     gridtolerance="10"
     guidetolerance="10"
     inkscape:pageopacity="0"
     inkscape:pageshadow="2"
     inkscape:window-width="1920"
     inkscape:window-height="1027"
     id="namedview281"
     showgrid="false"
     units="px"
     inkscape:zoom="1.2535844"
     inkscape:cx="360.52635"
     inkscape:cy="231.64991"
     inkscape:window-x="-8"
     inkscape:window-y="-8"
     inkscape:window-maximized="1"
     inkscape:current-layer="svg279" /><defs
     id="defs4"><style
       type="text/css"
       id="style2"><![CDATA[
    .str0 {stroke:#97161B;stroke-width:25}
    .fil2 {fill:#97161A}
    .fil0 {fill:#97161B}
    .fil1 {fill:#97161B;fill-rule:nonzero}
   ]]></style></defs><g
     id="Слой_x0020_1"
     transform="matrix(0.66404566,0,0,0.66404566,0,150.94747)"><metadata
       id="CorelCorpID_0Corel-Layer" /><g
       id="_31886992"><path
         class="fil0"
         d="m 190,7909 c -40,985 1450,743 2989,1833 l 35,1832 C 1163,10547 641,10831 0,10185 150,9307 -31,8245 190,7909 Z"
         id="path7"
         inkscape:connector-curvature="0"
         style="fill:#97161b" /><path
         class="fil0"
         d="m 2664,15388 3222,99 -1699,-1586 c -1264,-458 -3015,91 -3983,-910 l 952,1784 c 164,359 686,555 1508,613 z"
         id="path9"
         inkscape:connector-curvature="0"
         style="fill:#97161b" /><polygon
         class="fil1"
         points="6359,15391 6428,15319 7524,16375 7455,16447 "
         id="polygon11"
         style="fill:#97161b;fill-rule:nonzero" /><polygon
         class="fil1"
         points="5653,14367 5724,14298 7654,16266 7583,16335 "
         id="polygon13"
         style="fill:#97161b;fill-rule:nonzero" /><polygon
         class="fil1"
         points="6392,14688 6467,14623 7805,16155 7730,16221 "
         id="polygon15"
         style="fill:#97161b;fill-rule:nonzero" /><polygon
         class="fil1"
         points="5241,12834 5318,12771 7965,16037 7888,16100 "
         id="polygon17"
         style="fill:#97161b;fill-rule:nonzero" /><polygon
         class="fil1"
         points="6705,14093 6786,14036 8119,15942 8038,15999 "
         id="polygon19"
         style="fill:#97161b;fill-rule:nonzero" /><polygon
         class="fil1"
         points="6295,12964 6378,12910 8288,15846 8204,15900 "
         id="polygon21"
         style="fill:#97161b;fill-rule:nonzero" /><polygon
         class="fil1"
         points="7155,13694 7241,13644 8465,15768 8378,15818 "
         id="polygon23"
         style="fill:#97161b;fill-rule:nonzero" /><polygon
         class="fil1"
         points="7390,13440 7479,13395 8645,15697 8556,15742 "
         id="polygon25"
         style="fill:#97161b;fill-rule:nonzero" /><polygon
         class="fil1"
         points="7730,13393 7822,13353 8813,15629 8722,15669 "
         id="polygon27"
         style="fill:#97161b;fill-rule:nonzero" /><polygon
         class="fil1"
         points="8137,13575 8230,13540 8992,15559 8899,15594 "
         id="polygon29"
         style="fill:#97161b;fill-rule:nonzero" /><polygon
         class="fil1"
         points="8517,13897 8612,13866 9148,15517 9053,15548 "
         id="polygon31"
         style="fill:#97161b;fill-rule:nonzero" /><polygon
         class="fil1"
         points="8787,13894 8884,13868 9317,15479 9221,15504 "
         id="polygon33"
         style="fill:#97161b;fill-rule:nonzero" /><polygon
         class="fil1"
         points="9083,14068 9180,14047 9491,15447 9394,15469 "
         id="polygon35"
         style="fill:#97161b;fill-rule:nonzero" /><polygon
         class="fil1"
         points="9315,13989 9413,13971 9671,15423 9572,15440 "
         id="polygon37"
         style="fill:#97161b;fill-rule:nonzero" /><polygon
         class="fil1"
         points="9590,14205 9689,14192 9845,15406 9746,15419 "
         id="polygon39"
         style="fill:#97161b;fill-rule:nonzero" /><polygon
         class="fil1"
         points="9850,13955 9950,13949 10035,15397 9936,15403 "
         id="polygon41"
         style="fill:#97161b;fill-rule:nonzero" /><path
         class="fil0"
         d="m 4316,17697 c -567,-16 -823,-285 -1134,-594 473,-29 831,-55 1191,133 190,128 289,402 -57,461 z"
         id="path43"
         inkscape:connector-curvature="0"
         style="fill:#97161b" /><path
         class="fil0"
         d="m 4851,17331 c -261,-266 -321,-509 -478,-898 349,174 626,302 832,617 264,366 -68,502 -354,281 z"
         id="path45"
         inkscape:connector-curvature="0"
         style="fill:#97161b" /><path
         class="fil0"
         d="m 5152,16518 c -320,-96 -411,-241 -595,-473 398,0 673,-32 891,127 215,219 30,445 -296,346 z"
         id="path47"
         inkscape:connector-curvature="0"
         style="fill:#97161b" /><path
         class="fil0"
         d="m 5857,16326 c -147,-192 -150,-337 -165,-619 291,60 539,170 599,479 45,235 -201,376 -434,140 z"
         id="path49"
         inkscape:connector-curvature="0"
         style="fill:#97161b" /><path
         class="fil0"
         d="m 6620,16626 c -153,-151 -199,-347 -245,-630 311,17 516,21 605,382 45,363 -167,399 -360,248 z"
         id="path51"
         inkscape:connector-curvature="0"
         style="fill:#97161b" /><path
         class="fil0"
         d="m 5198,15864 c -218,-41 -243,-132 -296,-263 162,-51 277,-76 476,28 121,115 12,272 -180,235 z"
         id="path53"
         inkscape:connector-curvature="0"
         style="fill:#97161b" /><path
         class="fil0"
         d="m 4397,15880 c -155,-24 -188,-185 -327,-286 200,-19 396,-16 572,112 330,235 145,267 -245,174 z"
         id="path55"
         inkscape:connector-curvature="0"
         style="fill:#97161b" /><path
         class="fil0"
         d="m 3843,16609 c -212,-297 -327,-510 -322,-958 162,2 277,47 345,134 l 317,564 c 137,271 -90,534 -340,260 z"
         id="path57"
         inkscape:connector-curvature="0"
         style="fill:#97161b" /><path
         class="fil0"
         d="m 3316,15658 c 63,543 -574,471 -430,-28 156,-14 300,-8 430,28 z"
         id="path59"
         inkscape:connector-curvature="0"
         style="fill:#97161b" /><path
         class="fil0"
         d="m 3013,16828 c -341,-192 -625,-447 -867,-747 455,50 865,164 1226,345 269,132 -28,604 -359,402 z"
         id="path61"
         inkscape:connector-curvature="0"
         style="fill:#97161b" /><path
         class="fil0"
         d="m 2364,15897 c -228,-123 -443,-273 -634,-472 319,40 609,120 867,240 278,151 53,367 -233,232 z"
         id="path63"
         inkscape:connector-curvature="0"
         style="fill:#97161b" /><path
         class="fil0"
         d="m 2395,12723 c -294,-229 -387,-461 -595,-825 368,124 660,213 908,497 311,327 1,507 -313,328 z"
         id="path65"
         inkscape:connector-curvature="0"
         style="fill:#97161b" /><path
         class="fil0"
         d="m 3022,13003 c -20,-356 91,-568 223,-946 141,344 259,611 209,968 -42,429 -366,317 -432,-22 z"
         id="path67"
         inkscape:connector-curvature="0"
         style="fill:#97161b" /><path
         class="fil0"
         d="m 1230,12443 c 25,-369 165,-575 350,-949 102,373 191,664 94,1026 -98,439 -419,282 -444,-77 z"
         id="path69"
         inkscape:connector-curvature="0"
         style="fill:#97161b" /><path
         class="fil0"
         d="m 513,12137 c -240,-299 -277,-554 -398,-968 339,213 610,372 790,716 233,402 -121,507 -392,252 z"
         id="path71"
         inkscape:connector-curvature="0"
         style="fill:#97161b" /><path
         class="fil0"
         d="m 677,13132 c -256,-285 -307,-538 -452,-944 351,193 630,337 829,670 256,388 -92,513 -377,274 z"
         id="path73"
         inkscape:connector-curvature="0"
         style="fill:#97161b" /><path
         class="fil0"
         d="m 511,11201 c -212,-210 -263,-404 -394,-714 282,135 506,234 675,485 216,290 -49,403 -281,229 z"
         id="path75"
         inkscape:connector-curvature="0"
         style="fill:#97161b" /><path
         class="fil0"
         d="m 679,8161 c -105,-366 -58,-616 -32,-1046 211,323 384,571 426,956 69,460 -251,427 -394,90 z"
         id="path77"
         inkscape:connector-curvature="0"
         style="fill:#97161b" /><path
         class="fil0"
         d="m 901,7004 c -17,-504 149,-810 352,-1352 193,483 357,857 273,1365 -73,612 -539,465 -625,-13 z"
         id="path79"
         inkscape:connector-curvature="0"
         style="fill:#97161b" /><path
         class="fil0"
         d="m 1557,5826 c 74,-496 262,-760 521,-1248 73,513 141,913 -16,1392 -166,583 -519,342 -505,-144 z"
         id="path81"
         inkscape:connector-curvature="0"
         style="fill:#97161b" /><path
         class="fil0"
         d="m 2338,4549 c 173,-423 408,-621 758,-1002 -36,466 -53,831 -302,1224 -279,482 -569,203 -456,-222 z"
         id="path83"
         inkscape:connector-curvature="0"
         style="fill:#97161b" /><path
         class="fil0"
         d="m 3286,3540 c 239,-406 525,-581 959,-928 -88,460 -145,822 -467,1191 -364,455 -663,151 -492,-263 z"
         id="path85"
         inkscape:connector-curvature="0"
         style="fill:#97161b" /><path
         class="fil0"
         d="m 4370,2797 c 359,-314 693,-395 1224,-594 -228,412 -395,740 -824,994 -497,322 -695,-59 -400,-400 z"
         id="path87"
         inkscape:connector-curvature="0"
         style="fill:#97161b" /><path
         class="fil0"
         d="m 5539,2608 c 508,-196 887,-125 1523,-97 -416,377 -732,685 -1284,774 -654,136 -693,-416 -239,-677 z"
         id="path89"
         inkscape:connector-curvature="0"
         style="fill:#97161b" /><path
         class="fil0"
         d="m 6479,3250 c 224,-300 484,-397 965,-735 -176,518 -304,929 -641,1244 -391,401 -554,-81 -324,-509 z"
         id="path91"
         inkscape:connector-curvature="0"
         style="fill:#97161b" /><path
         class="fil0"
         d="m 1331,7646 c 290,-335 564,-449 999,-697 -180,411 -312,737 -661,1023 -404,359 -575,27 -338,-326 z"
         id="path93"
         inkscape:connector-curvature="0"
         style="fill:#97161b" /><path
         class="fil0"
         d="m 1873,6487 c 300,-297 561,-376 983,-568 -209,385 -365,692 -713,934 -407,306 -525,-44 -270,-366 z"
         id="path95"
         inkscape:connector-curvature="0"
         style="fill:#97161b" /><path
         class="fil0"
         d="m 2524,5289 c 368,-257 655,-293 1132,-419 -289,368 -508,662 -916,853 -481,249 -541,-141 -216,-434 z"
         id="path97"
         inkscape:connector-curvature="0"
         style="fill:#97161b" /><path
         class="fil0"
         d="m 3469,4212 c 437,-135 720,-76 1212,-44 -401,270 -709,491 -1160,546 -539,89 -459,-319 -52,-502 z"
         id="path99"
         inkscape:connector-curvature="0"
         style="fill:#97161b" /><path
         class="fil0"
         d="m 4479,3458 c 445,-105 723,-27 1212,38 -418,243 -741,442 -1194,467 -544,52 -437,-350 -18,-505 z"
         id="path101"
         inkscape:connector-curvature="0"
         style="fill:#97161b" /><path
         class="fil0"
         d="m 1411,8569 c 127,-247 299,-373 555,-608 -25,260 -37,464 -219,699 -204,287 -418,153 -336,-91 z"
         id="path103"
         inkscape:connector-curvature="0"
         style="fill:#97161b" /><path
         class="fil0"
         d="m 2397,7525 c 23,-444 204,-713 439,-1189 146,429 272,761 153,1208 -116,539 -547,405 -592,-19 z"
         id="path105"
         inkscape:connector-curvature="0"
         style="fill:#97161b" /><path
         class="fil0"
         d="m 3120,6273 c 82,-381 276,-587 546,-964 66,390 128,695 -38,1064 -177,449 -530,272 -508,-100 z"
         id="path107"
         inkscape:connector-curvature="0"
         style="fill:#97161b" /><path
         class="fil0"
         d="m 3950,5091 c 220,-381 500,-535 920,-848 -64,442 -102,791 -408,1131 -345,421 -664,109 -512,-283 z"
         id="path109"
         inkscape:connector-curvature="0"
         style="fill:#97161b" /><path
         class="fil0"
         d="m 5338,3840 c 274,-239 465,-229 791,-291 -239,385 -422,695 -713,848 -346,207 -329,-268 -78,-557 z"
         id="path111"
         inkscape:connector-curvature="0"
         style="fill:#97161b" /><path
         class="fil0"
         d="m 4402,6275 c 345,-184 499,-448 801,-836 -385,24 -688,31 -1004,303 -389,304 -146,648 203,533 z"
         id="path113"
         inkscape:connector-curvature="0"
         style="fill:#97161b" /><path
         class="fil0"
         d="m 5534,5209 c 463,-283 620,-590 962,-1064 -568,138 -1016,233 -1412,596 -495,416 -37,685 450,468 z"
         id="path115"
         inkscape:connector-curvature="0"
         style="fill:#97161b" /><path
         class="fil0"
         d="m 3622,7350 c 344,-241 460,-501 714,-903 -421,116 -754,197 -1048,506 -367,352 -28,581 334,397 z"
         id="path117"
         inkscape:connector-curvature="0"
         style="fill:#97161b" /><path
         class="fil0"
         d="m 3221,8542 c 257,-308 301,-578 435,-1014 -361,213 -649,371 -844,730 -252,418 119,544 409,284 z"
         id="path119"
         inkscape:connector-curvature="0"
         style="fill:#97161b" /><path
         class="fil0"
         d="m 2196,8821 c -111,-342 -68,-615 -49,-1066 216,262 391,459 440,841 76,450 -243,523 -391,225 z"
         id="path121"
         inkscape:connector-curvature="0"
         style="fill:#97161b" /><path
         class="fil0"
         d="m 3173,9378 c -17,-204 -20,-407 14,-607 -390,296 -566,537 -166,635 57,9 109,5 152,-28 z"
         id="path123"
         inkscape:connector-curvature="0"
         style="fill:#97161b" /><path
         class="fil0"
         d="m 1635,11167 c -21,-73 -501,-221 -616,-211 -60,291 28,484 162,648 217,-70 364,-221 454,-437 z"
         id="path125"
         inkscape:connector-curvature="0"
         style="fill:#97161b" /><path
         class="fil0"
         d="m 2182,11319 c -109,-62 -210,-95 -300,-81 16,287 150,531 405,729 104,-13 190,-55 219,-190 -44,-206 -139,-370 -324,-458 z"
         id="path127"
         inkscape:connector-curvature="0"
         style="fill:#97161b" /><path
         class="fil0"
         d="m 3063,11728 c -119,-84 -247,-107 -381,-92 -42,205 -24,384 42,543 100,41 198,47 293,-11 87,-75 114,-210 46,-440 z"
         id="path129"
         inkscape:connector-curvature="0"
         style="fill:#97161b" /><path
         class="fil0"
         d="m 1984,13300 c -4,-302 -28,-551 -112,-642 -130,160 -226,357 -289,592 -30,111 77,152 176,169 116,5 203,-21 225,-119 z"
         id="path131"
         inkscape:connector-curvature="0"
         style="fill:#97161b" /><path
         class="fil0"
         d="m 2552,13476 c 205,132 426,63 327,-175 -290,-453 -529,-492 -742,-556 39,161 202,464 415,731 z"
         id="path133"
         inkscape:connector-curvature="0"
         style="fill:#97161b" /><path
         class="fil0"
         d="m 3879,13484 c 2,-222 -116,-297 -293,-406 -25,202 -18,291 9,427 79,197 293,172 284,-21 z"
         id="path135"
         inkscape:connector-curvature="0"
         style="fill:#97161b" /><path
         class="fil0"
         d="m 10200,12700 c -844,25 -1707,-70 -2589,-271 C 6806,11006 6236,9392 6014,7498 7330,6169 8714,5124 10200,4509 c 1486,615 2870,1660 4187,2989 -223,1894 -793,3508 -1598,4931 -881,201 -1745,296 -2589,271 z m 0,367 c 1020,28 1950,-112 2819,-367 939,-1626 1557,-3383 1706,-5329 C 13407,5924 11894,4829 10200,4058 8506,4829 6993,5924 5675,7371 c 150,1946 767,3703 1706,5329 869,255 1799,395 2819,367 z"
         id="path137"
         inkscape:connector-curvature="0"
         style="fill:#97161b" /><polygon
         class="fil0"
         points="10976,2164 11321,3518 10200,2756 9079,3518 9425,2164 8396,1297 9749,1297 10200,0 10651,1297 12005,1297 "
         id="polygon139"
         style="fill:#97161b" /><path
         class="fil2"
         d="m 20210,7909 c 40,985 -1450,743 -2989,1833 l -35,1832 c 2051,-1027 2573,-743 3214,-1389 -150,-878 31,-1940 -190,-2276 z"
         id="path141"
         inkscape:connector-curvature="0"
         style="fill:#97161a" /><path
         class="fil0"
         d="m 17736,15388 -3222,99 1699,-1586 c 1264,-458 3015,91 3983,-910 l -952,1784 c -164,359 -686,555 -1508,613 z"
         id="path143"
         inkscape:connector-curvature="0"
         style="fill:#97161b" /><path
         class="fil0 str0"
         d="m 10238,15395 c 1399,13 2382,613 3156,1509 134,14 260,51 380,98 171,-254 759,-270 1438,-232 -260,181 -528,340 -817,437 31,92 100,156 197,197 99,-103 226,-179 381,-225 -94,166 -132,287 -113,359 l 395,346 958,84 c -129,96 -311,161 -387,289 21,42 42,85 63,127 896,144 1504,311 2637,176 -278,265 -585,507 -1023,649 319,279 828,447 1438,557 -567,201 -1444,255 -3461,-240 -419,-78 -840,-100 -1269,0 -773,195 -1522,285 -2164,-113 -575,140 -1177,241 -1847,240 -670,1 -1271,-100 -1847,-240 -641,398 -1391,308 -2164,113 -428,-100 -850,-78 -1269,0 -2017,495 -2894,441 -3461,240 610,-110 1119,-278 1438,-557 -438,-142 -745,-384 -1022,-649 1132,135 1740,-32 2636,-176 21,-42 42,-85 64,-127 -77,-128 -259,-193 -388,-289 l 958,-84 395,-346 c 19,-72 -19,-193 -113,-359 156,46 282,122 381,225 98,-41 166,-105 197,-197 -289,-97 -556,-256 -817,-437 679,-38 1267,-22 1438,232 120,-47 246,-84 380,-98 774,-896 1757,-1496 3157,-1509 v -1555 h 75 z m 3464,3505 c 691,147 1297,138 1803,-59 440,-128 399,-398 -132,-409 -612,-36 -1175,66 -1690,303 -242,80 -219,133 19,165 z m -6992,0 c -691,147 -1297,138 -1803,-59 -440,-128 -399,-398 133,-409 611,-36 1174,66 1689,303 242,80 219,133 -19,165 z m 3490,443 c 2057,182 2973,-1106 5125,-1156 -390,-335 -876,-664 -1586,-980 -218,-71 -428,-84 -627,-14 -1017,372 -1916,576 -2912,620 -996,-44 -1894,-248 -2912,-620 -199,-70 -409,-57 -627,14 -710,316 -1196,645 -1586,980 2152,50 3068,1338 5125,1156 z"
         id="path145"
         inkscape:connector-curvature="0"
         style="fill:#97161b;stroke:#97161b;stroke-width:25" /><polygon
         class="fil1"
         points="14042,15391 13973,15319 12876,16375 12945,16447 "
         id="polygon147"
         style="fill:#97161b;fill-rule:nonzero" /><polygon
         class="fil1"
         points="14748,14367 14677,14298 12746,16266 12817,16335 "
         id="polygon149"
         style="fill:#97161b;fill-rule:nonzero" /><polygon
         class="fil1"
         points="13988,14668 13913,14603 12575,16135 12650,16201 "
         id="polygon151"
         style="fill:#97161b;fill-rule:nonzero" /><polygon
         class="fil1"
         points="15160,12834 15082,12771 12435,16037 12512,16100 "
         id="polygon153"
         style="fill:#97161b;fill-rule:nonzero" /><polygon
         class="fil1"
         points="13695,14093 13614,14036 12281,15942 12363,15999 "
         id="polygon155"
         style="fill:#97161b;fill-rule:nonzero" /><polygon
         class="fil1"
         points="14105,12964 14022,12910 12113,15846 12196,15900 "
         id="polygon157"
         style="fill:#97161b;fill-rule:nonzero" /><polygon
         class="fil1"
         points="13226,13674 13139,13624 11916,15748 12002,15798 "
         id="polygon159"
         style="fill:#97161b;fill-rule:nonzero" /><polygon
         class="fil1"
         points="12980,13410 12891,13365 11725,15667 11814,15712 "
         id="polygon161"
         style="fill:#97161b;fill-rule:nonzero" /><polygon
         class="fil1"
         points="12650,13373 12559,13333 11567,15609 11658,15649 "
         id="polygon163"
         style="fill:#97161b;fill-rule:nonzero" /><polygon
         class="fil1"
         points="12263,13575 12170,13540 11408,15559 11501,15594 "
         id="polygon165"
         style="fill:#97161b;fill-rule:nonzero" /><polygon
         class="fil1"
         points="11883,13897 11789,13866 11253,15517 11347,15548 "
         id="polygon167"
         style="fill:#97161b;fill-rule:nonzero" /><polygon
         class="fil1"
         points="11613,13894 11516,13868 11083,15479 11179,15504 "
         id="polygon169"
         style="fill:#97161b;fill-rule:nonzero" /><polygon
         class="fil1"
         points="11317,14068 11220,14047 10909,15447 11006,15469 "
         id="polygon171"
         style="fill:#97161b;fill-rule:nonzero" /><polygon
         class="fil1"
         points="11085,13989 10987,13971 10730,15423 10828,15440 "
         id="polygon173"
         style="fill:#97161b;fill-rule:nonzero" /><polygon
         class="fil1"
         points="10810,14205 10712,14192 10555,15406 10654,15419 "
         id="polygon175"
         style="fill:#97161b;fill-rule:nonzero" /><polygon
         class="fil1"
         points="10550,13955 10450,13949 10365,15397 10465,15403 "
         id="polygon177"
         style="fill:#97161b;fill-rule:nonzero" /><path
         class="fil0"
         d="m 16085,17697 c 566,-16 822,-285 1133,-594 -473,-29 -831,-55 -1191,133 -190,128 -289,402 58,461 z"
         id="path179"
         inkscape:connector-curvature="0"
         style="fill:#97161b" /><path
         class="fil0"
         d="m 15550,17331 c 260,-266 320,-509 477,-898 -348,174 -626,302 -832,617 -264,366 69,502 355,281 z"
         id="path181"
         inkscape:connector-curvature="0"
         style="fill:#97161b" /><path
         class="fil0"
         d="m 15248,16518 c 320,-96 411,-241 595,-473 -397,0 -673,-32 -891,127 -215,219 -30,445 296,346 z"
         id="path183"
         inkscape:connector-curvature="0"
         style="fill:#97161b" /><path
         class="fil0"
         d="m 14543,16326 c 147,-192 150,-337 166,-619 -291,60 -539,170 -600,479 -45,235 202,376 434,140 z"
         id="path185"
         inkscape:connector-curvature="0"
         style="fill:#97161b" /><path
         class="fil0"
         d="m 13780,16626 c 153,-151 199,-347 245,-630 -311,17 -516,21 -605,382 -45,363 167,399 360,248 z"
         id="path187"
         inkscape:connector-curvature="0"
         style="fill:#97161b" /><path
         class="fil0"
         d="m 15202,15864 c 218,-41 243,-132 296,-263 -162,-51 -277,-76 -476,28 -121,115 -11,272 180,235 z"
         id="path189"
         inkscape:connector-curvature="0"
         style="fill:#97161b" /><path
         class="fil0"
         d="m 16004,15880 c 154,-24 187,-185 326,-286 -200,-19 -396,-16 -571,112 -331,235 -145,267 245,174 z"
         id="path191"
         inkscape:connector-curvature="0"
         style="fill:#97161b" /><path
         class="fil0"
         d="m 16557,16609 c 213,-297 327,-510 323,-958 -163,2 -277,47 -346,134 l -317,564 c -137,271 90,534 340,260 z"
         id="path193"
         inkscape:connector-curvature="0"
         style="fill:#97161b" /><path
         class="fil0"
         d="m 17084,15658 c -63,543 574,471 430,-28 -156,-14 -300,-8 -430,28 z"
         id="path195"
         inkscape:connector-curvature="0"
         style="fill:#97161b" /><path
         class="fil0"
         d="m 17387,16828 c 341,-192 625,-447 867,-747 -455,50 -865,164 -1226,345 -269,132 28,604 359,402 z"
         id="path197"
         inkscape:connector-curvature="0"
         style="fill:#97161b" /><path
         class="fil0"
         d="m 18036,15897 c 228,-123 443,-273 634,-472 -319,40 -609,120 -867,240 -278,151 -53,367 233,232 z"
         id="path199"
         inkscape:connector-curvature="0"
         style="fill:#97161b" /><path
         class="fil0"
         d="m 18005,12723 c 295,-229 387,-461 596,-825 -369,124 -661,213 -909,497 -311,327 0,507 313,328 z"
         id="path201"
         inkscape:connector-curvature="0"
         style="fill:#97161b" /><path
         class="fil0"
         d="m 17379,13003 c 19,-356 -91,-568 -224,-946 -141,344 -259,611 -209,968 42,429 366,317 433,-22 z"
         id="path203"
         inkscape:connector-curvature="0"
         style="fill:#97161b" /><path
         class="fil0"
         d="m 19171,12443 c -25,-369 -166,-575 -351,-949 -102,373 -191,664 -93,1026 97,439 418,282 444,-77 z"
         id="path205"
         inkscape:connector-curvature="0"
         style="fill:#97161b" /><path
         class="fil0"
         d="m 19887,12137 c 240,-299 277,-554 398,-968 -339,213 -610,372 -790,716 -233,402 121,507 392,252 z"
         id="path207"
         inkscape:connector-curvature="0"
         style="fill:#97161b" /><path
         class="fil0"
         d="m 19723,13132 c 256,-285 308,-538 452,-944 -350,193 -630,337 -829,670 -256,388 92,513 377,274 z"
         id="path209"
         inkscape:connector-curvature="0"
         style="fill:#97161b" /><path
         class="fil0"
         d="m 19889,11201 c 212,-210 263,-404 394,-714 -281,135 -505,234 -675,485 -215,290 49,403 281,229 z"
         id="path211"
         inkscape:connector-curvature="0"
         style="fill:#97161b" /><path
         class="fil0"
         d="m 19721,8161 c 105,-366 58,-616 32,-1046 -211,323 -384,571 -426,956 -69,460 251,427 394,90 z"
         id="path213"
         inkscape:connector-curvature="0"
         style="fill:#97161b" /><path
         class="fil0"
         d="m 19499,7004 c 17,-504 -149,-810 -352,-1352 -193,483 -356,857 -273,1365 74,612 540,465 625,-13 z"
         id="path215"
         inkscape:connector-curvature="0"
         style="fill:#97161b" /><path
         class="fil0"
         d="m 18844,5826 c -74,-496 -262,-760 -522,-1248 -73,513 -141,913 16,1392 166,583 519,342 506,-144 z"
         id="path217"
         inkscape:connector-curvature="0"
         style="fill:#97161b" /><path
         class="fil0"
         d="m 18062,4549 c -173,-423 -408,-621 -757,-1002 35,466 52,831 301,1224 279,482 569,203 456,-222 z"
         id="path219"
         inkscape:connector-curvature="0"
         style="fill:#97161b" /><path
         class="fil0"
         d="m 17114,3540 c -239,-406 -525,-581 -958,-928 87,460 144,822 466,1191 365,455 663,151 492,-263 z"
         id="path221"
         inkscape:connector-curvature="0"
         style="fill:#97161b" /><path
         class="fil0"
         d="m 16030,2797 c -359,-314 -693,-395 -1224,-594 228,412 396,740 824,994 497,322 696,-58 400,-400 z"
         id="path223"
         inkscape:connector-curvature="0"
         style="fill:#97161b" /><path
         class="fil0"
         d="m 14861,2608 c -508,-196 -887,-125 -1523,-97 416,377 732,685 1285,774 654,136 692,-416 238,-677 z"
         id="path225"
         inkscape:connector-curvature="0"
         style="fill:#97161b" /><path
         class="fil0"
         d="m 13921,3250 c -224,-300 -483,-397 -965,-735 176,518 305,929 642,1244 390,401 553,-81 323,-509 z"
         id="path227"
         inkscape:connector-curvature="0"
         style="fill:#97161b" /><path
         class="fil0"
         d="m 19069,7646 c -290,-335 -564,-449 -999,-697 180,411 312,737 661,1023 404,359 575,27 338,-326 z"
         id="path229"
         inkscape:connector-curvature="0"
         style="fill:#97161b" /><path
         class="fil0"
         d="m 18528,6487 c -301,-297 -562,-376 -984,-568 210,385 366,692 714,934 406,306 524,-44 270,-366 z"
         id="path231"
         inkscape:connector-curvature="0"
         style="fill:#97161b" /><path
         class="fil0"
         d="m 17877,5289 c -369,-257 -656,-293 -1133,-419 289,368 508,662 916,853 481,248 541,-141 217,-434 z"
         id="path233"
         inkscape:connector-curvature="0"
         style="fill:#97161b" /><path
         class="fil0"
         d="m 16931,4212 c -436,-135 -719,-76 -1212,-44 401,270 709,491 1160,546 539,89 460,-319 52,-502 z"
         id="path235"
         inkscape:connector-curvature="0"
         style="fill:#97161b" /><path
         class="fil0"
         d="m 15921,3458 c -444,-105 -723,-27 -1212,38 418,243 741,442 1194,467 544,52 437,-350 18,-505 z"
         id="path237"
         inkscape:connector-curvature="0"
         style="fill:#97161b" /><path
         class="fil0"
         d="m 18989,8569 c -126,-247 -299,-373 -555,-608 25,260 37,464 219,699 204,287 418,153 336,-91 z"
         id="path239"
         inkscape:connector-curvature="0"
         style="fill:#97161b" /><path
         class="fil0"
         d="m 18003,7525 c -23,-444 -204,-713 -439,-1189 -146,429 -272,761 -153,1208 117,539 548,405 592,-19 z"
         id="path241"
         inkscape:connector-curvature="0"
         style="fill:#97161b" /><path
         class="fil0"
         d="m 17280,6273 c -82,-381 -276,-587 -546,-964 -66,390 -128,695 38,1064 177,449 530,272 508,-100 z"
         id="path243"
         inkscape:connector-curvature="0"
         style="fill:#97161b" /><path
         class="fil0"
         d="m 16451,5091 c -221,-381 -500,-535 -921,-848 64,442 103,791 408,1131 345,421 664,109 513,-283 z"
         id="path245"
         inkscape:connector-curvature="0"
         style="fill:#97161b" /><path
         class="fil0"
         d="m 15062,3840 c -274,-239 -465,-229 -791,-291 239,385 422,695 713,848 346,207 330,-268 78,-557 z"
         id="path247"
         inkscape:connector-curvature="0"
         style="fill:#97161b" /><path
         class="fil0"
         d="m 15998,6275 c -345,-184 -499,-448 -801,-836 385,24 688,31 1004,303 389,304 146,648 -203,533 z"
         id="path249"
         inkscape:connector-curvature="0"
         style="fill:#97161b" /><path
         class="fil0"
         d="m 14866,5209 c -462,-283 -619,-590 -961,-1064 567,138 1016,233 1411,596 495,416 37,685 -450,468 z"
         id="path251"
         inkscape:connector-curvature="0"
         style="fill:#97161b" /><path
         class="fil0"
         d="m 16778,7350 c -343,-241 -460,-501 -714,-903 421,116 754,197 1048,506 368,352 28,581 -334,397 z"
         id="path253"
         inkscape:connector-curvature="0"
         style="fill:#97161b" /><path
         class="fil0"
         d="m 17179,8542 c -257,-308 -300,-578 -435,-1014 361,213 649,371 844,730 252,418 -119,544 -409,284 z"
         id="path255"
         inkscape:connector-curvature="0"
         style="fill:#97161b" /><path
         class="fil0"
         d="m 18204,8821 c 111,-342 68,-615 50,-1066 -216,262 -392,459 -441,841 -76,450 243,523 391,225 z"
         id="path257"
         inkscape:connector-curvature="0"
         style="fill:#97161b" /><path
         class="fil0"
         d="m 17227,9378 c 17,-204 21,-407 -14,-607 390,296 566,537 166,635 -57,9 -109,5 -152,-28 z"
         id="path259"
         inkscape:connector-curvature="0"
         style="fill:#97161b" /><path
         class="fil0"
         d="m 18765,11167 c 21,-73 501,-221 617,-211 59,291 -29,484 -162,648 -218,-70 -365,-221 -455,-437 z"
         id="path261"
         inkscape:connector-curvature="0"
         style="fill:#97161b" /><path
         class="fil0"
         d="m 18219,11319 c 108,-62 209,-95 299,-81 -16,287 -150,531 -405,729 -104,-13 -190,-55 -219,-190 44,-206 139,-370 325,-458 z"
         id="path263"
         inkscape:connector-curvature="0"
         style="fill:#97161b" /><path
         class="fil0"
         d="m 17337,11728 c 120,-84 248,-107 381,-92 42,205 24,384 -42,543 -100,41 -198,47 -293,-11 -86,-75 -114,-210 -46,-440 z"
         id="path265"
         inkscape:connector-curvature="0"
         style="fill:#97161b" /><path
         class="fil0"
         d="m 18416,13300 c 4,-302 29,-551 113,-642 129,160 225,357 289,592 29,111 -77,152 -177,169 -115,5 -203,-21 -225,-119 z"
         id="path267"
         inkscape:connector-curvature="0"
         style="fill:#97161b" /><path
         class="fil0"
         d="m 17848,13476 c -204,132 -426,63 -327,-175 291,-453 530,-492 742,-556 -39,161 -202,464 -415,731 z"
         id="path269"
         inkscape:connector-curvature="0"
         style="fill:#97161b" /><path
         class="fil0"
         d="m 16521,13484 c -2,-222 116,-297 293,-406 25,202 18,291 -9,427 -79,197 -293,172 -284,-21 z"
         id="path271"
         inkscape:connector-curvature="0"
         style="fill:#97161b" /><path
         class="fil0"
         d="m 10200,8075 c 1185,-16 2385,-190 3588,-395 l -3588,1544 2589,3205 -2589,-1732 -2589,1732 2589,-3205 -3588,-1544 c 1203,205 2404,379 3588,395 z"
         id="path273"
         inkscape:connector-curvature="0"
         style="fill:#97161b" /><path
         class="fil1"
         d="m 8198,7573 -138,-1084 -398,51 -28,-220 1066,-136 28,220 -396,51 138,1083 z m 855,-115 -54,-1313 1002,-42 9,222 -728,30 12,292 677,-28 9,222 -677,28 15,356 754,-31 9,222 z m 2148,-474 261,90 c -46,143 -119,247 -216,314 -97,66 -219,96 -364,90 -180,-7 -325,-73 -436,-197 -111,-124 -162,-289 -154,-496 9,-219 75,-387 196,-503 121,-116 277,-170 466,-163 166,7 299,60 398,160 60,59 102,141 129,248 l -273,51 c -13,-68 -44,-123 -94,-165 -49,-42 -110,-64 -182,-67 -101,-4 -184,28 -249,95 -66,67 -102,179 -108,336 -7,166 19,285 78,358 58,73 137,112 236,116 72,3 136,-17 190,-60 54,-43 95,-111 122,-207 z m 735,554 138,-1083 -398,-51 28,-221 1066,136 -28,221 -396,-51 -138,1084 z"
         id="path275"
         inkscape:connector-curvature="0"
         style="fill:#97161b;fill-rule:nonzero" /></g></g></svg>