<?xml version="1.0" encoding="UTF-8" standalone="no"?>
<!-- Creator: CorelDRAW X8 -->

<svg
   xmlns:dc="http://purl.org/dc/elements/1.1/"
   xmlns:cc="http://creativecommons.org/ns#"
   xmlns:rdf="http://www.w3.org/1999/02/22-rdf-syntax-ns#"
   xmlns:svg="http://www.w3.org/2000/svg"
   xmlns="http://www.w3.org/2000/svg"
   xmlns:sodipodi="http://sodipodi.sourceforge.net/DTD/sodipodi-0.dtd"
   xmlns:inkscape="http://www.inkscape.org/namespaces/inkscape"
   xml:space="preserve"
   width="512"
   height="512"
   version="1.1"
   style="clip-rule:evenodd;fill-rule:evenodd;image-rendering:optimizeQuality;shape-rendering:geometricPrecision;text-rendering:geometricPrecision"
   viewBox="0 0 13546.666 13546.667"
   id="svg279"
   sodipodi:docname="gost-old.svg"
   inkscape:version="0.92.2 (5c3e80d, 2017-08-06)"><metadata
     id="metadata283"><rdf:RDF><cc:Work
         rdf:about=""><dc:format>image/svg+xml</dc:format><dc:type
           rdf:resource="http://purl.org/dc/dcmitype/StillImage" /><dc:title></dc:title></cc:Work></rdf:RDF></metadata><sodipodi:namedview
     pagecolor="#ffffff"
     bordercolor="#666666"
     borderopacity="1"
     objecttolerance="10"
     gridtolerance="10"
     guidetolerance="10"
     inkscape:pageopacity="0"
     inkscape:pageshadow="2"
     inkscape:window-width="1920"
     inkscape:window-height="1027"
     id="namedview281"
     showgrid="false"
     inkscape:measure-start="464.978,570.922"
     inkscape:measure-end="396.85,443.679"
     units="px"
     inkscape:zoom="0.84096521"
     inkscape:cx="387.10334"
     inkscape:cy="336.08394"
     inkscape:window-x="1912"
     inkscape:window-y="-8"
     inkscape:window-maximized="1"
     inkscape:current-layer="svg279" /><defs
     id="defs4"><style
       type="text/css"
       id="style2"><![CDATA[
    .str0 {stroke:#97161B;stroke-width:25}
    .fil2 {fill:#97161A}
    .fil0 {fill:#97161B}
    .fil1 {fill:#97161B;fill-rule:nonzero}
   ]]></style></defs><g
     id="Слой_x0020_1"
     transform="matrix(0.66405229,0,0,0.66405229,-198.87405,-3099.2104)"><metadata
       id="CorelCorpID_0Corel-Layer" /><g
       id="_464932728"><path
         class="fil0"
         d="m 490,12803 c -40,985 1450,743 2989,1833 l 35,1832 C 1463,15441 941,15726 300,15079 450,14201 269,13139 490,12803 Z"
         id="path7"
         inkscape:connector-curvature="0"
         style="fill:#97161b" /><path
         class="fil0"
         d="m 2964,20282 3222,99 -1699,-1586 c -1264,-458 -3015,92 -3983,-909 l 952,1783 c 164,359 686,555 1508,613 z"
         id="path9"
         inkscape:connector-curvature="0"
         style="fill:#97161b" /><polygon
         class="fil1"
         points="7755,21341 6658,20285 6728,20213 7824,21269 "
         id="polygon11"
         style="fill:#97161b;fill-rule:nonzero" /><polygon
         class="fil1"
         points="7883,21230 5953,19262 6024,19192 7954,21160 "
         id="polygon13"
         style="fill:#97161b;fill-rule:nonzero" /><polygon
         class="fil1"
         points="8030,21115 6692,19583 6767,19517 8105,21049 "
         id="polygon15"
         style="fill:#97161b;fill-rule:nonzero" /><polygon
         class="fil1"
         points="8188,20994 5541,17728 5618,17666 8265,20931 "
         id="polygon17"
         style="fill:#97161b;fill-rule:nonzero" /><polygon
         class="fil1"
         points="8337,20893 7005,18987 7086,18930 8419,20836 "
         id="polygon19"
         style="fill:#97161b;fill-rule:nonzero" /><polygon
         class="fil1"
         points="8504,20794 6595,17858 6678,17804 8588,20740 "
         id="polygon21"
         style="fill:#97161b;fill-rule:nonzero" /><polygon
         class="fil1"
         points="8678,20712 7455,18588 7541,18538 8764,20662 "
         id="polygon23"
         style="fill:#97161b;fill-rule:nonzero" /><polygon
         class="fil1"
         points="8856,20636 7690,18334 7779,18290 8945,20591 "
         id="polygon25"
         style="fill:#97161b;fill-rule:nonzero" /><polygon
         class="fil1"
         points="9022,20563 8030,18287 8121,18247 9113,20523 "
         id="polygon27"
         style="fill:#97161b;fill-rule:nonzero" /><polygon
         class="fil1"
         points="9199,20488 8437,18469 8530,18434 9292,20453 "
         id="polygon29"
         style="fill:#97161b;fill-rule:nonzero" /><polygon
         class="fil1"
         points="9353,20442 8817,18791 8912,18760 9448,20411 "
         id="polygon31"
         style="fill:#97161b;fill-rule:nonzero" /><polygon
         class="fil1"
         points="9521,20399 9087,18788 9184,18763 9617,20373 "
         id="polygon33"
         style="fill:#97161b;fill-rule:nonzero" /><polygon
         class="fil1"
         points="9694,20363 9383,18962 9480,18941 9791,20341 "
         id="polygon35"
         style="fill:#97161b;fill-rule:nonzero" /><polygon
         class="fil1"
         points="9872,20334 9615,18883 9713,18866 9971,20317 "
         id="polygon37"
         style="fill:#97161b;fill-rule:nonzero" /><polygon
         class="fil1"
         points="10046,20313 9890,19099 9988,19086 10145,20300 "
         id="polygon39"
         style="fill:#97161b;fill-rule:nonzero" /><polygon
         class="fil1"
         points="10236,20297 10150,18849 10250,18843 10335,20291 "
         id="polygon41"
         style="fill:#97161b;fill-rule:nonzero" /><path
         class="fil0"
         d="m 4615,22591 c -566,-16 -822,-285 -1133,-594 473,-29 831,-55 1191,133 190,128 289,402 -58,461 z"
         id="path43"
         inkscape:connector-curvature="0"
         style="fill:#97161b" /><path
         class="fil0"
         d="m 5150,22225 c -260,-266 -320,-509 -477,-898 348,174 626,302 832,617 264,366 -69,502 -355,281 z"
         id="path45"
         inkscape:connector-curvature="0"
         style="fill:#97161b" /><path
         class="fil0"
         d="m 5452,21412 c -320,-96 -411,-241 -595,-472 398,-1 673,-33 891,126 215,219 30,445 -296,346 z"
         id="path47"
         inkscape:connector-curvature="0"
         style="fill:#97161b" /><path
         class="fil0"
         d="m 6157,21220 c -147,-192 -150,-337 -165,-619 291,60 538,170 599,480 45,234 -201,375 -434,139 z"
         id="path49"
         inkscape:connector-curvature="0"
         style="fill:#97161b" /><path
         class="fil0"
         d="m 6920,21520 c -153,-151 -199,-347 -245,-630 311,18 516,22 605,383 45,362 -167,398 -360,247 z"
         id="path51"
         inkscape:connector-curvature="0"
         style="fill:#97161b" /><path
         class="fil0"
         d="m 5498,20758 c -218,-41 -243,-132 -296,-263 162,-51 277,-76 476,28 121,115 12,272 -180,235 z"
         id="path53"
         inkscape:connector-curvature="0"
         style="fill:#97161b" /><path
         class="fil0"
         d="m 4697,20774 c -155,-24 -188,-184 -327,-286 200,-18 396,-16 572,112 330,235 144,267 -245,174 z"
         id="path55"
         inkscape:connector-curvature="0"
         style="fill:#97161b" /><path
         class="fil0"
         d="m 4143,21503 c -212,-297 -327,-510 -323,-958 163,2 278,47 346,134 l 317,564 c 137,271 -90,534 -340,260 z"
         id="path57"
         inkscape:connector-curvature="0"
         style="fill:#97161b" /><path
         class="fil0"
         d="m 3616,20552 c 63,543 -574,471 -430,-28 156,-14 300,-8 430,28 z"
         id="path59"
         inkscape:connector-curvature="0"
         style="fill:#97161b" /><path
         class="fil0"
         d="m 3313,21722 c -341,-192 -625,-447 -867,-747 455,50 865,164 1226,345 269,132 -28,604 -359,402 z"
         id="path61"
         inkscape:connector-curvature="0"
         style="fill:#97161b" /><path
         class="fil0"
         d="m 2664,20792 c -228,-124 -443,-274 -634,-473 319,40 609,120 867,240 278,152 53,367 -233,233 z"
         id="path63"
         inkscape:connector-curvature="0"
         style="fill:#97161b" /><path
         class="fil0"
         d="m 2695,17617 c -294,-228 -387,-461 -595,-825 368,125 660,214 908,498 311,326 0,506 -313,327 z"
         id="path65"
         inkscape:connector-curvature="0"
         style="fill:#97161b" /><path
         class="fil0"
         d="m 3322,17897 c -20,-355 90,-568 223,-946 141,344 259,611 209,968 -42,429 -366,317 -432,-22 z"
         id="path67"
         inkscape:connector-curvature="0"
         style="fill:#97161b" /><path
         class="fil0"
         d="m 1529,17338 c 26,-370 166,-576 351,-950 102,373 191,664 93,1026 -97,439 -418,282 -444,-76 z"
         id="path69"
         inkscape:connector-curvature="0"
         style="fill:#97161b" /><path
         class="fil0"
         d="m 813,17031 c -240,-299 -277,-554 -398,-968 339,213 610,372 790,716 233,402 -121,507 -392,252 z"
         id="path71"
         inkscape:connector-curvature="0"
         style="fill:#97161b" /><path
         class="fil0"
         d="m 977,18026 c -256,-285 -308,-538 -452,-944 350,193 630,337 829,670 256,388 -92,513 -377,274 z"
         id="path73"
         inkscape:connector-curvature="0"
         style="fill:#97161b" /><path
         class="fil0"
         d="m 811,16096 c -212,-211 -263,-405 -394,-715 282,135 505,235 675,485 216,290 -49,403 -281,230 z"
         id="path75"
         inkscape:connector-curvature="0"
         style="fill:#97161b" /><path
         class="fil0"
         d="m 979,13056 c -105,-367 -58,-617 -32,-1047 211,323 384,571 426,957 69,459 -251,426 -394,90 z"
         id="path77"
         inkscape:connector-curvature="0"
         style="fill:#97161b" /><path
         class="fil0"
         d="m 1201,11898 c -17,-504 149,-810 352,-1352 193,483 357,857 273,1366 -74,611 -540,465 -625,-14 z"
         id="path79"
         inkscape:connector-curvature="0"
         style="fill:#97161b" /><path
         class="fil0"
         d="m 1857,10720 c 73,-496 262,-760 521,-1248 73,513 141,913 -16,1393 -166,582 -519,341 -505,-145 z"
         id="path81"
         inkscape:connector-curvature="0"
         style="fill:#97161b" /><path
         class="fil0"
         d="m 2638,9443 c 173,-423 408,-621 758,-1002 -36,466 -53,831 -302,1224 -279,482 -569,204 -456,-222 z"
         id="path83"
         inkscape:connector-curvature="0"
         style="fill:#97161b" /><path
         class="fil0"
         d="m 3586,8435 c 239,-406 525,-582 959,-929 -88,460 -145,822 -467,1191 -364,455 -663,151 -492,-262 z"
         id="path85"
         inkscape:connector-curvature="0"
         style="fill:#97161b" /><path
         class="fil0"
         d="m 4670,7691 c 359,-314 693,-395 1224,-594 -228,412 -396,740 -824,994 -497,322 -696,-58 -400,-400 z"
         id="path87"
         inkscape:connector-curvature="0"
         style="fill:#97161b" /><path
         class="fil0"
         d="m 5839,7502 c 508,-196 887,-125 1523,-97 -416,377 -732,685 -1285,774 -653,136 -692,-416 -238,-677 z"
         id="path89"
         inkscape:connector-curvature="0"
         style="fill:#97161b" /><path
         class="fil0"
         d="m 6779,8144 c 224,-300 483,-397 965,-734 -176,517 -304,928 -642,1243 -390,401 -553,-81 -323,-509 z"
         id="path91"
         inkscape:connector-curvature="0"
         style="fill:#97161b" /><path
         class="fil0"
         d="m 1631,12540 c 290,-335 564,-449 999,-697 -180,412 -312,737 -661,1024 -404,358 -575,26 -338,-327 z"
         id="path93"
         inkscape:connector-curvature="0"
         style="fill:#97161b" /><path
         class="fil0"
         d="m 2173,11381 c 300,-297 561,-376 983,-568 -210,386 -366,692 -714,934 -406,306 -524,-44 -269,-366 z"
         id="path95"
         inkscape:connector-curvature="0"
         style="fill:#97161b" /><path
         class="fil0"
         d="m 2823,10184 c 369,-258 656,-294 1133,-420 -289,368 -508,662 -916,853 -481,249 -541,-141 -217,-433 z"
         id="path97"
         inkscape:connector-curvature="0"
         style="fill:#97161b" /><path
         class="fil0"
         d="m 3769,9106 c 436,-135 720,-76 1212,-44 -401,270 -709,491 -1160,546 -539,89 -459,-318 -52,-502 z"
         id="path99"
         inkscape:connector-curvature="0"
         style="fill:#97161b" /><path
         class="fil0"
         d="m 4779,8352 c 444,-105 723,-27 1212,38 -418,243 -741,442 -1194,467 -544,52 -437,-349 -18,-505 z"
         id="path101"
         inkscape:connector-curvature="0"
         style="fill:#97161b" /><path
         class="fil0"
         d="m 1711,13463 c 126,-247 299,-373 555,-608 -25,260 -37,464 -219,699 -204,287 -418,153 -336,-91 z"
         id="path103"
         inkscape:connector-curvature="0"
         style="fill:#97161b" /><path
         class="fil0"
         d="m 2697,12419 c 23,-444 204,-712 439,-1188 146,428 272,760 153,1208 -116,538 -548,404 -592,-20 z"
         id="path105"
         inkscape:connector-curvature="0"
         style="fill:#97161b" /><path
         class="fil0"
         d="m 3420,11167 c 82,-381 276,-586 546,-964 66,390 128,695 -38,1064 -177,449 -530,272 -508,-100 z"
         id="path107"
         inkscape:connector-curvature="0"
         style="fill:#97161b" /><path
         class="fil0"
         d="m 4250,9985 c 220,-381 500,-535 920,-848 -64,442 -103,791 -408,1131 -345,421 -664,109 -512,-283 z"
         id="path109"
         inkscape:connector-curvature="0"
         style="fill:#97161b" /><path
         class="fil0"
         d="m 5638,8735 c 274,-240 465,-230 791,-292 -239,385 -422,695 -713,848 -346,208 -330,-268 -78,-556 z"
         id="path111"
         inkscape:connector-curvature="0"
         style="fill:#97161b" /><path
         class="fil0"
         d="m 4702,11169 c 345,-184 499,-447 801,-836 -385,24 -688,31 -1004,303 -389,304 -146,648 203,533 z"
         id="path113"
         inkscape:connector-curvature="0"
         style="fill:#97161b" /><path
         class="fil0"
         d="m 5834,10104 c 463,-284 620,-591 962,-1064 -568,137 -1016,232 -1412,595 -495,416 -37,685 450,469 z"
         id="path115"
         inkscape:connector-curvature="0"
         style="fill:#97161b" /><path
         class="fil0"
         d="m 3922,12244 c 344,-241 460,-501 714,-903 -421,116 -754,198 -1048,506 -368,352 -28,581 334,397 z"
         id="path117"
         inkscape:connector-curvature="0"
         style="fill:#97161b" /><path
         class="fil0"
         d="m 3521,13436 c 257,-308 300,-578 435,-1014 -361,213 -649,371 -844,730 -252,418 119,545 409,284 z"
         id="path119"
         inkscape:connector-curvature="0"
         style="fill:#97161b" /><path
         class="fil0"
         d="m 2496,13715 c -111,-342 -68,-615 -49,-1066 216,262 391,459 440,842 76,449 -243,522 -391,224 z"
         id="path121"
         inkscape:connector-curvature="0"
         style="fill:#97161b" /><path
         class="fil0"
         d="m 3473,14272 c -17,-204 -20,-407 14,-606 -390,295 -566,536 -166,634 57,9 109,5 152,-28 z"
         id="path123"
         inkscape:connector-curvature="0"
         style="fill:#97161b" /><path
         class="fil0"
         d="m 1935,16061 c -21,-73 -501,-221 -617,-211 -59,291 29,484 163,648 217,-70 364,-221 454,-437 z"
         id="path125"
         inkscape:connector-curvature="0"
         style="fill:#97161b" /><path
         class="fil0"
         d="m 2482,16213 c -109,-61 -210,-95 -300,-81 16,288 150,531 405,729 104,-13 190,-54 219,-190 -44,-206 -139,-369 -324,-458 z"
         id="path127"
         inkscape:connector-curvature="0"
         style="fill:#97161b" /><path
         class="fil0"
         d="m 3363,16622 c -120,-84 -248,-107 -381,-92 -42,206 -24,385 42,543 100,41 198,47 293,-11 86,-75 114,-209 46,-440 z"
         id="path129"
         inkscape:connector-curvature="0"
         style="fill:#97161b" /><path
         class="fil0"
         d="m 2284,18194 c -4,-302 -29,-551 -113,-642 -129,160 -225,358 -289,592 -29,111 78,152 177,170 115,4 203,-22 225,-120 z"
         id="path131"
         inkscape:connector-curvature="0"
         style="fill:#97161b" /><path
         class="fil0"
         d="m 2852,18370 c 204,132 426,63 327,-175 -291,-453 -530,-492 -742,-556 39,161 202,464 415,731 z"
         id="path133"
         inkscape:connector-curvature="0"
         style="fill:#97161b" /><path
         class="fil0"
         d="m 4179,18378 c 2,-222 -116,-297 -293,-406 -25,202 -18,291 9,428 79,196 293,171 284,-22 z"
         id="path135"
         inkscape:connector-curvature="0"
         style="fill:#97161b" /><path
         class="fil0"
         d="m 10500,17595 c -844,25 -1708,-71 -2589,-272 -805,-1423 -1375,-3037 -1598,-4931 1317,-1329 2701,-2374 4187,-2989 1486,615 2870,1660 4187,2989 -223,1894 -793,3508 -1598,4931 -881,201 -1745,297 -2589,272 z m 0,366 c 1020,28 1950,-112 2819,-366 939,-1627 1557,-3384 1706,-5330 -1318,-1447 -2831,-2542 -4525,-3313 -1694,771 -3207,1866 -4525,3313 149,1946 767,3703 1706,5330 869,254 1799,394 2819,366 z"
         id="path137"
         inkscape:connector-curvature="0"
         style="fill:#97161b" /><polygon
         class="fil0"
         points="12305,6191 11275,7058 11621,8412 10500,7650 9379,8412 9725,7058 8695,6191 10049,6191 10500,4894 10951,6191 "
         id="polygon139"
         style="fill:#97161b" /><path
         class="fil2"
         d="m 20510,12803 c 40,985 -1450,743 -2989,1833 l -35,1832 c 2051,-1027 2573,-742 3214,-1389 -150,-878 31,-1940 -190,-2276 z"
         id="path141"
         inkscape:connector-curvature="0"
         style="fill:#97161a" /><path
         class="fil0"
         d="m 18036,20282 -3222,99 1699,-1586 c 1264,-458 3015,92 3983,-909 l -952,1783 c -164,359 -686,555 -1508,613 z"
         id="path143"
         inkscape:connector-curvature="0"
         style="fill:#97161b" /><path
         class="fil0 str0"
         d="m 10537,20290 c 1400,12 2383,612 3157,1508 134,15 260,51 380,98 171,-254 759,-270 1438,-232 -260,181 -528,340 -817,437 31,92 99,156 197,197 99,-103 225,-178 381,-225 -94,166 -132,287 -113,359 l 395,346 958,84 c -129,97 -311,161 -387,289 21,43 42,85 63,127 896,144 1504,311 2636,176 -277,265 -584,507 -1022,649 319,279 828,447 1438,557 -567,202 -1444,255 -3461,-240 -419,-78 -840,-100 -1269,0 -773,195 -1522,285 -2164,-113 -576,140 -1177,241 -1847,240 -670,1 -1271,-100 -1847,-240 -642,398 -1391,308 -2164,113 -429,-100 -850,-78 -1269,0 -2017,495 -2894,442 -3461,240 610,-110 1119,-278 1438,-557 -438,-142 -745,-384 -1022,-649 1132,135 1740,-32 2636,-176 21,-42 42,-84 63,-127 -76,-128 -258,-192 -387,-289 l 958,-84 395,-346 c 19,-72 -19,-193 -113,-359 156,47 282,122 381,225 98,-41 166,-105 197,-197 -289,-97 -557,-256 -817,-437 679,-38 1267,-22 1438,232 120,-47 246,-83 380,-98 774,-896 1757,-1496 3157,-1508 v -1556 h 74 z m 3465,3505 c 691,146 1297,137 1803,-60 440,-127 399,-397 -132,-409 -612,-36 -1175,66 -1690,304 -242,79 -219,132 19,165 z m -6992,0 c -691,146 -1297,137 -1803,-60 -440,-127 -399,-397 132,-409 612,-36 1175,66 1690,304 242,79 219,132 -19,165 z m 3490,442 c 2057,182 2973,-1106 5125,-1156 -390,-335 -876,-664 -1586,-980 -218,-71 -428,-84 -627,-14 -1017,372 -1916,576 -2912,620 -996,-44 -1895,-248 -2912,-620 -199,-70 -409,-57 -627,14 -710,316 -1196,645 -1586,980 2152,50 3068,1338 5125,1156 z"
         id="path145"
         inkscape:connector-curvature="0"
         style="fill:#97161b;stroke:#97161b;stroke-width:25" /><polygon
         class="fil1"
         points="13245,21341 14342,20285 14273,20213 13176,21269 "
         id="polygon147"
         style="fill:#97161b;fill-rule:nonzero" /><polygon
         class="fil1"
         points="13117,21230 15047,19262 14976,19192 13046,21160 "
         id="polygon149"
         style="fill:#97161b;fill-rule:nonzero" /><polygon
         class="fil1"
         points="12950,21095 14288,19563 14213,19497 12875,21029 "
         id="polygon151"
         style="fill:#97161b;fill-rule:nonzero" /><polygon
         class="fil1"
         points="12812,20994 15459,17728 15382,17666 12735,20931 "
         id="polygon153"
         style="fill:#97161b;fill-rule:nonzero" /><polygon
         class="fil1"
         points="12663,20893 13995,18987 13914,18930 12581,20836 "
         id="polygon155"
         style="fill:#97161b;fill-rule:nonzero" /><polygon
         class="fil1"
         points="12496,20794 14405,17858 14322,17804 12412,20740 "
         id="polygon157"
         style="fill:#97161b;fill-rule:nonzero" /><polygon
         class="fil1"
         points="12302,20692 13525,18568 13439,18518 12216,20642 "
         id="polygon159"
         style="fill:#97161b;fill-rule:nonzero" /><polygon
         class="fil1"
         points="12114,20606 13280,18304 13191,18260 12025,20561 "
         id="polygon161"
         style="fill:#97161b;fill-rule:nonzero" /><polygon
         class="fil1"
         points="11958,20543 12950,18267 12859,18227 11867,20503 "
         id="polygon163"
         style="fill:#97161b;fill-rule:nonzero" /><polygon
         class="fil1"
         points="11801,20488 12563,18469 12470,18434 11708,20453 "
         id="polygon165"
         style="fill:#97161b;fill-rule:nonzero" /><polygon
         class="fil1"
         points="11647,20442 12183,18791 12088,18760 11552,20411 "
         id="polygon167"
         style="fill:#97161b;fill-rule:nonzero" /><polygon
         class="fil1"
         points="11479,20399 11913,18788 11816,18763 11383,20373 "
         id="polygon169"
         style="fill:#97161b;fill-rule:nonzero" /><polygon
         class="fil1"
         points="11306,20363 11617,18962 11520,18941 11209,20341 "
         id="polygon171"
         style="fill:#97161b;fill-rule:nonzero" /><polygon
         class="fil1"
         points="11128,20334 11385,18883 11287,18866 11029,20317 "
         id="polygon173"
         style="fill:#97161b;fill-rule:nonzero" /><polygon
         class="fil1"
         points="10954,20313 11110,19099 11012,19086 10855,20300 "
         id="polygon175"
         style="fill:#97161b;fill-rule:nonzero" /><polygon
         class="fil1"
         points="10764,20297 10850,18849 10750,18843 10665,20291 "
         id="polygon177"
         style="fill:#97161b;fill-rule:nonzero" /><path
         class="fil0"
         d="m 16385,22591 c 566,-16 822,-285 1133,-594 -473,-29 -831,-55 -1191,133 -190,128 -289,402 58,461 z"
         id="path179"
         inkscape:connector-curvature="0"
         style="fill:#97161b" /><path
         class="fil0"
         d="m 15850,22225 c 260,-266 320,-509 477,-898 -348,174 -626,302 -832,617 -264,366 69,502 355,281 z"
         id="path181"
         inkscape:connector-curvature="0"
         style="fill:#97161b" /><path
         class="fil0"
         d="m 15548,21412 c 320,-96 411,-241 595,-472 -398,-1 -673,-33 -891,126 -215,219 -30,445 296,346 z"
         id="path183"
         inkscape:connector-curvature="0"
         style="fill:#97161b" /><path
         class="fil0"
         d="m 14843,21220 c 147,-192 150,-337 165,-619 -291,60 -538,170 -599,480 -45,234 201,375 434,139 z"
         id="path185"
         inkscape:connector-curvature="0"
         style="fill:#97161b" /><path
         class="fil0"
         d="m 14080,21520 c 153,-151 199,-347 245,-630 -311,18 -516,22 -605,383 -45,362 167,398 360,247 z"
         id="path187"
         inkscape:connector-curvature="0"
         style="fill:#97161b" /><path
         class="fil0"
         d="m 15502,20758 c 218,-41 243,-132 296,-263 -162,-51 -277,-76 -476,28 -121,115 -12,272 180,235 z"
         id="path189"
         inkscape:connector-curvature="0"
         style="fill:#97161b" /><path
         class="fil0"
         d="m 16303,20774 c 155,-24 188,-184 327,-286 -200,-18 -396,-16 -572,112 -330,235 -144,267 245,174 z"
         id="path191"
         inkscape:connector-curvature="0"
         style="fill:#97161b" /><path
         class="fil0"
         d="m 16857,21503 c 212,-297 327,-510 323,-958 -163,2 -278,47 -346,134 l -317,564 c -137,271 90,534 340,260 z"
         id="path193"
         inkscape:connector-curvature="0"
         style="fill:#97161b" /><path
         class="fil0"
         d="m 17384,20552 c -63,543 574,471 430,-28 -156,-14 -300,-8 -430,28 z"
         id="path195"
         inkscape:connector-curvature="0"
         style="fill:#97161b" /><path
         class="fil0"
         d="m 17687,21722 c 341,-192 625,-447 867,-747 -455,50 -865,164 -1226,345 -269,132 28,604 359,402 z"
         id="path197"
         inkscape:connector-curvature="0"
         style="fill:#97161b" /><path
         class="fil0"
         d="m 18336,20792 c 228,-124 443,-274 634,-473 -319,40 -609,120 -867,240 -278,152 -53,367 233,233 z"
         id="path199"
         inkscape:connector-curvature="0"
         style="fill:#97161b" /><path
         class="fil0"
         d="m 18305,17617 c 294,-228 387,-461 596,-825 -369,125 -661,214 -909,498 -311,326 0,506 313,327 z"
         id="path201"
         inkscape:connector-curvature="0"
         style="fill:#97161b" /><path
         class="fil0"
         d="m 17678,17897 c 20,-355 -90,-568 -223,-946 -141,344 -259,611 -209,968 42,429 366,317 432,-22 z"
         id="path203"
         inkscape:connector-curvature="0"
         style="fill:#97161b" /><path
         class="fil0"
         d="m 19471,17338 c -26,-370 -166,-576 -351,-950 -102,373 -191,664 -93,1026 97,439 418,282 444,-76 z"
         id="path205"
         inkscape:connector-curvature="0"
         style="fill:#97161b" /><path
         class="fil0"
         d="m 20187,17031 c 240,-299 277,-554 398,-968 -339,213 -610,372 -790,716 -233,402 121,507 392,252 z"
         id="path207"
         inkscape:connector-curvature="0"
         style="fill:#97161b" /><path
         class="fil0"
         d="m 20023,18026 c 256,-285 308,-538 452,-944 -350,193 -630,337 -829,670 -256,388 92,513 377,274 z"
         id="path209"
         inkscape:connector-curvature="0"
         style="fill:#97161b" /><path
         class="fil0"
         d="m 20189,16096 c 212,-211 263,-405 394,-715 -282,135 -505,235 -675,485 -216,290 49,403 281,230 z"
         id="path211"
         inkscape:connector-curvature="0"
         style="fill:#97161b" /><path
         class="fil0"
         d="m 20021,13056 c 105,-367 58,-617 32,-1047 -211,323 -384,571 -426,957 -69,459 251,426 394,90 z"
         id="path213"
         inkscape:connector-curvature="0"
         style="fill:#97161b" /><path
         class="fil0"
         d="m 19799,11898 c 17,-504 -149,-810 -352,-1352 -193,483 -357,857 -273,1366 74,611 540,465 625,-14 z"
         id="path215"
         inkscape:connector-curvature="0"
         style="fill:#97161b" /><path
         class="fil0"
         d="m 19143,10720 c -73,-496 -262,-760 -521,-1248 -73,513 -141,913 16,1393 166,582 519,341 505,-145 z"
         id="path217"
         inkscape:connector-curvature="0"
         style="fill:#97161b" /><path
         class="fil0"
         d="m 18362,9443 c -173,-423 -408,-621 -758,-1002 36,466 53,831 302,1224 279,482 569,204 456,-222 z"
         id="path219"
         inkscape:connector-curvature="0"
         style="fill:#97161b" /><path
         class="fil0"
         d="m 17414,8435 c -239,-406 -525,-582 -959,-929 88,460 145,822 467,1191 364,455 663,151 492,-262 z"
         id="path221"
         inkscape:connector-curvature="0"
         style="fill:#97161b" /><path
         class="fil0"
         d="m 16330,7691 c -359,-314 -693,-395 -1224,-594 228,412 396,740 824,994 497,322 696,-58 400,-400 z"
         id="path223"
         inkscape:connector-curvature="0"
         style="fill:#97161b" /><path
         class="fil0"
         d="m 15161,7502 c -508,-196 -887,-125 -1523,-97 416,377 732,685 1285,774 653,136 692,-416 238,-677 z"
         id="path225"
         inkscape:connector-curvature="0"
         style="fill:#97161b" /><path
         class="fil0"
         d="m 14221,8144 c -224,-300 -483,-397 -965,-734 176,517 305,928 642,1243 390,401 553,-81 323,-509 z"
         id="path227"
         inkscape:connector-curvature="0"
         style="fill:#97161b" /><path
         class="fil0"
         d="m 19369,12540 c -290,-335 -564,-449 -999,-697 180,412 312,737 661,1024 404,358 575,26 338,-327 z"
         id="path229"
         inkscape:connector-curvature="0"
         style="fill:#97161b" /><path
         class="fil0"
         d="m 18827,11381 c -300,-297 -561,-376 -983,-568 210,386 366,692 714,934 406,306 524,-44 269,-366 z"
         id="path231"
         inkscape:connector-curvature="0"
         style="fill:#97161b" /><path
         class="fil0"
         d="m 18177,10184 c -369,-258 -656,-294 -1133,-420 289,368 508,662 916,853 481,249 541,-141 217,-433 z"
         id="path233"
         inkscape:connector-curvature="0"
         style="fill:#97161b" /><path
         class="fil0"
         d="m 17231,9106 c -436,-135 -720,-76 -1212,-44 401,270 709,491 1160,546 539,89 459,-318 52,-502 z"
         id="path235"
         inkscape:connector-curvature="0"
         style="fill:#97161b" /><path
         class="fil0"
         d="m 16221,8352 c -444,-105 -723,-27 -1212,38 418,243 741,442 1194,467 544,52 437,-349 18,-505 z"
         id="path237"
         inkscape:connector-curvature="0"
         style="fill:#97161b" /><path
         class="fil0"
         d="m 19289,13463 c -126,-247 -299,-373 -555,-608 25,260 37,464 219,699 204,287 418,153 336,-91 z"
         id="path239"
         inkscape:connector-curvature="0"
         style="fill:#97161b" /><path
         class="fil0"
         d="m 18303,12419 c -23,-444 -204,-712 -439,-1188 -146,428 -272,760 -153,1208 116,538 548,404 592,-20 z"
         id="path241"
         inkscape:connector-curvature="0"
         style="fill:#97161b" /><path
         class="fil0"
         d="m 17580,11167 c -82,-381 -276,-586 -546,-964 -66,390 -128,695 38,1064 177,449 530,272 508,-100 z"
         id="path243"
         inkscape:connector-curvature="0"
         style="fill:#97161b" /><path
         class="fil0"
         d="m 16750,9985 c -220,-381 -500,-535 -920,-848 64,442 103,791 408,1131 345,421 664,109 512,-283 z"
         id="path245"
         inkscape:connector-curvature="0"
         style="fill:#97161b" /><path
         class="fil0"
         d="m 15362,8735 c -274,-240 -465,-230 -791,-292 239,385 422,695 713,848 346,208 330,-268 78,-556 z"
         id="path247"
         inkscape:connector-curvature="0"
         style="fill:#97161b" /><path
         class="fil0"
         d="m 16298,11169 c -345,-184 -499,-447 -801,-836 385,24 688,31 1004,303 389,304 146,648 -203,533 z"
         id="path249"
         inkscape:connector-curvature="0"
         style="fill:#97161b" /><path
         class="fil0"
         d="m 15166,10104 c -463,-284 -620,-591 -962,-1064 568,137 1016,232 1412,595 495,416 37,685 -450,469 z"
         id="path251"
         inkscape:connector-curvature="0"
         style="fill:#97161b" /><path
         class="fil0"
         d="m 17078,12244 c -344,-241 -460,-501 -714,-903 421,116 754,198 1048,506 368,352 28,581 -334,397 z"
         id="path253"
         inkscape:connector-curvature="0"
         style="fill:#97161b" /><path
         class="fil0"
         d="m 17479,13436 c -257,-308 -300,-578 -435,-1014 361,213 649,371 844,730 252,418 -119,545 -409,284 z"
         id="path255"
         inkscape:connector-curvature="0"
         style="fill:#97161b" /><path
         class="fil0"
         d="m 18504,13715 c 111,-342 68,-615 49,-1066 -216,262 -391,459 -440,842 -76,449 243,522 391,224 z"
         id="path257"
         inkscape:connector-curvature="0"
         style="fill:#97161b" /><path
         class="fil0"
         d="m 17527,14272 c 17,-204 20,-407 -14,-606 390,295 566,536 166,634 -57,9 -109,5 -152,-28 z"
         id="path259"
         inkscape:connector-curvature="0"
         style="fill:#97161b" /><path
         class="fil0"
         d="m 19065,16061 c 21,-73 501,-221 617,-211 59,291 -29,484 -163,648 -217,-70 -364,-221 -454,-437 z"
         id="path261"
         inkscape:connector-curvature="0"
         style="fill:#97161b" /><path
         class="fil0"
         d="m 18518,16213 c 109,-61 210,-95 300,-81 -16,288 -150,531 -405,729 -104,-13 -190,-54 -219,-190 44,-206 139,-369 324,-458 z"
         id="path263"
         inkscape:connector-curvature="0"
         style="fill:#97161b" /><path
         class="fil0"
         d="m 17637,16622 c 120,-84 248,-107 381,-92 42,206 24,385 -42,543 -100,41 -198,47 -293,-11 -86,-75 -114,-209 -46,-440 z"
         id="path265"
         inkscape:connector-curvature="0"
         style="fill:#97161b" /><path
         class="fil0"
         d="m 18716,18194 c 4,-302 29,-551 113,-642 129,160 225,358 289,592 29,111 -78,152 -177,170 -115,4 -203,-22 -225,-120 z"
         id="path267"
         inkscape:connector-curvature="0"
         style="fill:#97161b" /><path
         class="fil0"
         d="m 18148,18370 c -204,132 -426,63 -327,-175 291,-453 530,-492 742,-556 -39,161 -202,464 -415,731 z"
         id="path269"
         inkscape:connector-curvature="0"
         style="fill:#97161b" /><path
         class="fil0"
         d="m 16821,18378 c -2,-222 116,-297 293,-406 25,202 18,291 -9,428 -79,196 -293,171 -284,-22 z"
         id="path271"
         inkscape:connector-curvature="0"
         style="fill:#97161b" /><path
         class="fil0"
         d="m 10500,12969 c 1185,-16 2385,-190 3588,-395 l -3588,1544 2589,3205 -2589,-1732 -2589,1732 2589,-3205 -3588,-1544 c 1203,205 2403,379 3588,395 z"
         id="path273"
         inkscape:connector-curvature="0"
         style="fill:#97161b" /><path
         class="fil0"
         d="m 8040,11210 878,-146 45,211 -616,102 221,1038 -263,43 z m 1149,482 c -11,-130 0,-239 33,-330 24,-66 60,-127 108,-182 47,-55 101,-96 160,-125 79,-39 173,-62 280,-69 194,-13 354,35 480,143 127,109 198,266 216,473 17,205 -28,369 -133,492 -106,124 -256,192 -449,204 -196,13 -357,-34 -482,-142 -125,-107 -196,-262 -213,-464 z m 273,-27 c 12,144 56,250 131,320 75,70 166,101 272,94 106,-7 190,-49 252,-127 62,-79 87,-191 74,-338 -12,-146 -54,-252 -127,-319 -72,-67 -163,-97 -273,-90 -109,7 -195,49 -256,126 -61,77 -85,188 -73,334 z m 2139,147 253,88 c -48,138 -120,238 -216,302 -96,63 -215,92 -356,85 -175,-8 -316,-72 -422,-193 -105,-120 -152,-280 -140,-480 12,-211 79,-373 199,-484 120,-112 273,-164 457,-155 162,7 290,60 385,156 57,57 97,137 121,241 l -267,48 c -12,-67 -41,-120 -88,-161 -48,-40 -107,-62 -177,-65 -98,-4 -179,25 -244,90 -65,65 -102,173 -111,324 -10,160 14,275 69,346 56,71 132,109 228,113 71,4 133,-15 187,-56 53,-41 94,-107 122,-199 z m 704,563 220,-1038 -384,-63 45,-211 1029,170 -45,211 -382,-63 -220,1038 z"
         id="path275"
         inkscape:connector-curvature="0"
         style="fill:#97161b" /></g></g></svg>